<svg xmlns="http://www.w3.org/2000/svg" xmlns:xlink="http://www.w3.org/1999/xlink" width="1920" zoomAndPan="magnify" viewBox="0 0 1440 809.999993" height="1080" preserveAspectRatio="xMidYMid meet" version="1.0"><defs><g/><clipPath id="0f54f2cbe0"><path d="M 0.28125 0.878906 L 892.359375 0.878906 L 892.359375 667.359375 L 0.28125 667.359375 Z M 0.28125 0.878906 " clip-rule="nonzero"/></clipPath><clipPath id="003239dfee"><rect x="0" width="893" y="0" height="668"/></clipPath><clipPath id="de4559975f"><rect x="0" width="893" y="0" height="668"/></clipPath></defs><g transform="matrix(1, 0, 0, 1, 275, 68)"><g clip-path="url(#de4559975f)"><g clip-path="url(#0f54f2cbe0)"><g transform="matrix(1, 0, 0, 1, 0, 0.000000000000042633)"><g clip-path="url(#003239dfee)"><g fill="#0097b2" fill-opacity="1"><g transform="translate(0.304192, 524.097977)"><g><path d="M 329.53125 -9.5 L 321.15625 -16.75 L 306.640625 -32.953125 L 220.0625 -118.96875 L 210.5625 -125.109375 L 203.3125 -133.484375 L 163.65625 -171.46875 L 156.390625 -180.96875 L 149.125 -183.75 L 145.21875 -174.265625 L 144.09375 -163.09375 L 143.546875 -21.78125 L 137.953125 -4.46875 L 126.78125 1.109375 L 115.0625 1.671875 L 93.28125 0 L 80.984375 1.109375 L 58.09375 0 L 46.359375 -3.90625 L 41.328125 -14.515625 L 40.21875 -61.4375 L 41.328125 -72.046875 L 40.21875 -163.65625 L 41.890625 -173.140625 L 40.765625 -196.046875 L 41.328125 -205.546875 L 41.328125 -374.78125 L 46.359375 -385.390625 L 59.203125 -390.96875 L 75.953125 -387.0625 L 88.8125 -380.359375 L 97.1875 -373.65625 L 207.21875 -262.515625 L 222.859375 -250.21875 L 262.515625 -210.5625 L 270.890625 -206.65625 L 274.234375 -216.15625 L 275.359375 -316.125 L 274.234375 -328.421875 L 275.921875 -351.875 L 274.234375 -360.8125 L 274.796875 -372.546875 L 280.9375 -384.265625 L 291.546875 -390.40625 L 360.8125 -390.96875 L 371.984375 -384.828125 L 377.5625 -373.65625 L 379.25 -296.015625 L 377.5625 -282.609375 L 377.5625 -227.328125 L 379.25 -217.828125 L 378.125 -13.96875 L 372.546875 -2.796875 L 360.25 1.109375 L 344.609375 -0.5625 Z M 329.53125 -9.5 "/></g></g></g><g fill="#0097b2" fill-opacity="1"><g transform="translate(421.38781, 524.097977)"><g><path d="M 58.09375 1.671875 L 46.921875 -5.578125 L 40.765625 -17.3125 L 41.328125 -140.75 L 40.21875 -151.359375 L 41.890625 -207.78125 L 40.765625 -218.9375 L 41.328125 -308.3125 L 40.21875 -318.359375 L 41.890625 -340.140625 L 40.21875 -374.21875 L 46.359375 -385.9375 L 58.640625 -391.53125 L 74.28125 -387.0625 L 87.125 -377.5625 L 101.65625 -362.484375 L 110.59375 -354.671875 L 125.109375 -337.359375 L 132.9375 -330.65625 L 183.75 -274.234375 L 196.046875 -263.0625 L 206.09375 -250.21875 L 213.921875 -242.40625 L 220.625 -232.90625 L 232.34375 -228.4375 L 242.40625 -235.140625 L 276.46875 -269.765625 L 283.734375 -279.265625 L 332.890625 -329.53125 L 340.703125 -339.59375 L 347.40625 -345.734375 L 354.671875 -354.671875 L 378.125 -379.25 L 389.859375 -386.5 L 406.046875 -391.53125 L 417.78125 -385.390625 L 424.484375 -373.65625 L 423.359375 -363.046875 L 423.921875 -340.140625 L 423.359375 -330.65625 L 424.484375 -306.640625 L 423.921875 -296.015625 L 424.484375 -240.734375 L 423.359375 -228.4375 L 424.484375 -60.875 L 423.359375 -49.703125 L 425.046875 -20.671875 L 418.34375 -4.46875 L 406.609375 1.671875 L 339.03125 -0.5625 L 327.296875 -3.90625 L 322.828125 -16.75 L 322.828125 -25.140625 L 321.71875 -50.265625 L 322.828125 -60.328125 L 321.71875 -80.984375 L 322.828125 -102.765625 L 321.15625 -125.109375 L 322.265625 -155.828125 L 317.796875 -164.203125 L 310.546875 -160.859375 L 287.640625 -137.40625 L 279.828125 -131.8125 L 264.1875 -113.375 L 257.484375 -106.671875 L 249.65625 -98.296875 L 238.5 -89.921875 L 226.203125 -90.484375 L 214.46875 -98.859375 L 199.390625 -113.375 L 192.140625 -122.3125 L 169.234375 -145.21875 L 162.53125 -153.59375 L 153.59375 -160.859375 L 148.015625 -163.09375 L 142.984375 -158.0625 L 142.984375 -136.28125 L 144.09375 -124 L 142.984375 -103.890625 L 143.546875 -92.15625 L 141.859375 -74.84375 L 143.546875 -16.203125 L 136.84375 -6.140625 L 121.203125 0.5625 L 103.328125 -0.5625 L 91.046875 1.109375 L 69.265625 0 Z M 58.09375 1.671875 "/></g></g></g></g></g></g></g></g></svg>